M48
; DRILL file {KiCad 8.0.4} date 2024-08-02T12:11:45-0400
; FORMAT={-:-/ absolute / inch / decimal}
; #@! TF.CreationDate,2024-08-02T12:11:45-04:00
; #@! TF.GenerationSoftware,Kicad,Pcbnew,8.0.4
; #@! TF.FileFunction,Plated,1,2,PTH
FMAT,2
INCH
; #@! TA.AperFunction,Plated,PTH,ViaDrill
T1C0.0118
; #@! TA.AperFunction,Plated,PTH,ComponentDrill
T2C0.0394
%
G90
G05
T1
X5.0Y-3.4
X6.0Y-4.0
X6.1Y-3.4
X6.2496Y-3.9984
T2
X4.5Y-3.6
X4.5Y-4.2
X4.6Y-3.6
X4.6Y-4.2
X4.7Y-3.6
X4.7Y-4.2
X4.8Y-3.6
X4.8Y-4.2
X4.9Y-3.6
X4.9Y-4.2
X4.9Y-4.6
X4.9984Y-4.5016
X5.0Y-3.2
X5.0Y-3.6
X5.0Y-4.2
X5.0969Y-4.6
X5.1Y-3.2
X5.1Y-3.2
X5.1Y-3.6
X5.1Y-4.2
X5.2Y-3.6
X5.2Y-4.2
X5.3Y-3.6
X5.3Y-4.2
X5.3Y-4.6
X5.3984Y-4.5016
X5.4Y-3.2
X5.4Y-3.6
X5.4Y-4.2
X5.4969Y-4.6
X5.5Y-3.2
X5.5Y-3.2
X5.5Y-3.6
X5.5Y-4.2
X5.6Y-3.6
X5.6Y-4.2
X5.7Y-3.6
X5.7Y-4.2
X5.7Y-4.6
X5.7984Y-4.5016
X5.8Y-3.2
X5.8Y-3.6
X5.8Y-4.2
X5.8969Y-4.6
X5.9Y-3.2
X5.9Y-3.2
X5.9Y-3.6
X5.9Y-4.2
X6.1Y-4.6
X6.1984Y-4.5016
X6.2Y-3.2
X6.2969Y-4.6
X6.3Y-3.2
X6.3Y-3.2
X6.5Y-3.7
X6.5Y-3.7
X6.5Y-3.8
X6.5Y-3.9
X6.5Y-4.0
X6.5Y-4.0
T2
G00X4.5Y-3.1567
M15
G01X4.5Y-3.2433
M16
G05
G00X4.6772Y-3.389
M15
G01X4.5906Y-3.389
M16
G05
G00X4.748Y-3.1488
M15
G01X4.748Y-3.2512
M16
G05
M30
