%TF.GenerationSoftware,KiCad,Pcbnew,8.0.4*%
%TF.CreationDate,2024-08-02T12:11:38-04:00*%
%TF.ProjectId,LaserController5,4c617365-7243-46f6-9e74-726f6c6c6572,rev?*%
%TF.SameCoordinates,Original*%
%TF.FileFunction,Copper,L2,Bot*%
%TF.FilePolarity,Positive*%
%FSLAX46Y46*%
G04 Gerber Fmt 4.6, Leading zero omitted, Abs format (unit mm)*
G04 Created by KiCad (PCBNEW 8.0.4) date 2024-08-02 12:11:38*
%MOMM*%
%LPD*%
G01*
G04 APERTURE LIST*
%TA.AperFunction,ComponentPad*%
%ADD10R,2.000000X4.600000*%
%TD*%
%TA.AperFunction,ComponentPad*%
%ADD11O,2.000000X4.200000*%
%TD*%
%TA.AperFunction,ComponentPad*%
%ADD12O,4.200000X2.000000*%
%TD*%
%TA.AperFunction,ComponentPad*%
%ADD13R,1.700000X1.700000*%
%TD*%
%TA.AperFunction,ComponentPad*%
%ADD14O,1.700000X1.700000*%
%TD*%
%TA.AperFunction,ComponentPad*%
%ADD15R,1.550000X1.550000*%
%TD*%
%TA.AperFunction,ComponentPad*%
%ADD16C,1.550000*%
%TD*%
%TA.AperFunction,ComponentPad*%
%ADD17R,1.600000X1.600000*%
%TD*%
%TA.AperFunction,ComponentPad*%
%ADD18O,1.600000X1.600000*%
%TD*%
%TA.AperFunction,ViaPad*%
%ADD19C,0.600000*%
%TD*%
%TA.AperFunction,Conductor*%
%ADD20C,0.200000*%
%TD*%
G04 APERTURE END LIST*
D10*
%TO.P,DC12v, *%
%TO.N,N/C*%
X120600000Y-81280000D03*
D11*
X114300000Y-81280000D03*
D12*
X117700000Y-86080000D03*
%TD*%
D13*
%TO.P,REF\u002A\u002A,1*%
%TO.N,N/C*%
X165100000Y-93980000D03*
D14*
%TO.P,REF\u002A\u002A,2*%
X165100000Y-96520000D03*
%TD*%
D13*
%TO.P,,1*%
%TO.N,N/C*%
X165100000Y-93980000D03*
%TD*%
%TO.P,REF\u002A\u002A,1*%
%TO.N,N/C*%
X165100000Y-101600000D03*
D14*
%TO.P,REF\u002A\u002A,2*%
X165100000Y-99060000D03*
%TD*%
D13*
%TO.P,,1*%
%TO.N,N/C*%
X165100000Y-101600000D03*
%TD*%
D14*
%TO.P,REF\u002A\u002A,2*%
%TO.N,N/C*%
X157480000Y-81280000D03*
D13*
%TO.P,REF\u002A\u002A,1*%
X160020000Y-81280000D03*
%TD*%
%TO.P,,1*%
%TO.N,N/C*%
X160020000Y-81280000D03*
%TD*%
D14*
%TO.P,REF\u002A\u002A,2*%
%TO.N,N/C*%
X147320000Y-81280000D03*
D13*
%TO.P,REF\u002A\u002A,1*%
X149860000Y-81280000D03*
%TD*%
%TO.P,,1*%
%TO.N,N/C*%
X149860000Y-81280000D03*
%TD*%
%TO.P,REF\u002A\u002A,1*%
%TO.N,N/C*%
X139700000Y-81280000D03*
D14*
%TO.P,REF\u002A\u002A,2*%
X137160000Y-81280000D03*
%TD*%
D13*
%TO.P,,1*%
%TO.N,N/C*%
X139700000Y-81280000D03*
%TD*%
%TO.P,,1*%
%TO.N,N/C*%
X129540000Y-81280000D03*
%TD*%
%TO.P,REF\u002A\u002A,1*%
%TO.N,N/C*%
X129540000Y-81280000D03*
D14*
%TO.P,REF\u002A\u002A,2*%
X127000000Y-81280000D03*
%TD*%
D15*
%TO.P,REF\u002A\u002A, *%
%TO.N,N/C*%
X159940000Y-116840000D03*
D16*
X157440000Y-114340000D03*
X154940000Y-116840000D03*
%TD*%
D15*
%TO.P,REF\u002A\u002A, *%
%TO.N,N/C*%
X149780000Y-116840000D03*
D16*
X147280000Y-114340000D03*
X144780000Y-116840000D03*
%TD*%
D15*
%TO.P,REF\u002A\u002A, *%
%TO.N,N/C*%
X139620000Y-116840000D03*
D16*
X137120000Y-114340000D03*
X134620000Y-116840000D03*
%TD*%
D15*
%TO.P,REF\u002A\u002A, *%
%TO.N,N/C*%
X129460000Y-116840000D03*
D16*
X126960000Y-114340000D03*
X124460000Y-116840000D03*
%TD*%
D17*
%TO.P,U1, *%
%TO.N,N/C*%
X149860000Y-91440000D03*
D18*
%TO.P,U1, ,D0/RX*%
%TO.N,unconnected-(U1-D0{slash}RX-Pad2)*%
X147320000Y-91440000D03*
%TO.P,U1, ,~{RESET}*%
%TO.N,unconnected-(U1-~{RESET}-Pad3)*%
X144780000Y-91440000D03*
%TO.P,U1, ,GND*%
%TO.N,Net-(J2-Pin_2)*%
X142240000Y-91440000D03*
%TO.P,U1, ,D2*%
%TO.N,Net-(J5-Pin_1)*%
X139700000Y-91440000D03*
%TO.P,U1, ,D3*%
%TO.N,Net-(J4-Pin_1)*%
X137160000Y-91440000D03*
%TO.P,U1, ,D4*%
%TO.N,Net-(J3-Pin_1)*%
X134620000Y-91440000D03*
%TO.P,U1, ,D5*%
%TO.N,unconnected-(U1-D5-Pad8)*%
X132080000Y-91440000D03*
%TO.P,U1, ,D6*%
%TO.N,unconnected-(U1-D6-Pad9)*%
X129540000Y-91440000D03*
%TO.P,U1, ,D7*%
%TO.N,unconnected-(U1-D7-Pad10)*%
X127000000Y-91440000D03*
%TO.P,U1, ,D8*%
%TO.N,unconnected-(U1-D8-Pad11)*%
X124460000Y-91440000D03*
%TO.P,U1, ,D9*%
%TO.N,unconnected-(U1-D9-Pad12)*%
X121920000Y-91440000D03*
%TO.P,U1, ,D10*%
%TO.N,unconnected-(U1-D7-Pad10)*%
X119380000Y-91440000D03*
%TO.P,U1, ,D11*%
%TO.N,unconnected-(U1-D11-Pad14)*%
X116840000Y-91440000D03*
%TO.P,U1, ,D12*%
%TO.N,unconnected-(U1-D12-Pad15)*%
X114300000Y-91440000D03*
%TO.P,U1, ,D13*%
%TO.N,unconnected-(U1-D13-Pad16)*%
X114300000Y-106680000D03*
%TO.P,U1, ,3V3*%
%TO.N,unconnected-(U1-3V3-Pad17)*%
X116840000Y-106680000D03*
%TO.P,U1, ,AREF*%
%TO.N,unconnected-(U1-AREF-Pad18)*%
X119380000Y-106680000D03*
%TO.P,U1, ,A0*%
%TO.N,unconnected-(U1-A0-Pad19)*%
X121920000Y-106680000D03*
%TO.P,U1, ,A1*%
%TO.N,unconnected-(U1-A1-Pad20)*%
X124460000Y-106680000D03*
%TO.P,U1, ,A2*%
%TO.N,unconnected-(U1-A2-Pad21)*%
X127000000Y-106680000D03*
%TO.P,U1, ,A3*%
%TO.N,unconnected-(U1-A3-Pad22)*%
X129540000Y-106680000D03*
%TO.P,U1, ,A4*%
%TO.N,Net-(J1-Pin_1)*%
X132080000Y-106680000D03*
%TO.P,U1, ,A5*%
%TO.N,Net-(J1-Pin_2)*%
X134620000Y-106680000D03*
%TO.P,U1, ,A6*%
%TO.N,unconnected-(U1-A6-Pad25)*%
X137160000Y-106680000D03*
%TO.P,U1, ,A7*%
%TO.N,unconnected-(U1-A7-Pad26)*%
X139700000Y-106680000D03*
%TO.P,U1, ,+5V*%
%TO.N,Net-(J1-Pin_3)*%
X142240000Y-106680000D03*
%TO.P,U1, ,~{RESET}*%
%TO.N,unconnected-(U1-~{RESET}-Pad28)*%
X144780000Y-106680000D03*
%TO.P,U1, ,GND*%
%TO.N,Net-(J1-Pin_4)*%
X147320000Y-106680000D03*
%TO.P,U1, ,VIN*%
%TO.N,Net-(J2-Pin_1)*%
X149860000Y-106680000D03*
%TD*%
D19*
%TO.N,Net-(J1-Pin_1)*%
X158740817Y-101558757D03*
X152400000Y-101600000D03*
%TO.N,Net-(J2-Pin_1)*%
X127000000Y-86360000D03*
X154940000Y-86360000D03*
%TD*%
D20*
%TO.N,*%
X129540000Y-76200000D02*
X116840000Y-76200000D01*
X116840000Y-76200000D02*
X114300000Y-78740000D01*
X114300000Y-78740000D02*
X114300000Y-81280000D01*
X162560000Y-81280000D02*
X165100000Y-83820000D01*
X160020000Y-81280000D02*
X162560000Y-81280000D01*
X165100000Y-83820000D02*
X165100000Y-93980000D01*
X157480000Y-76200000D02*
X160020000Y-78740000D01*
X160020000Y-78740000D02*
X160020000Y-81280000D01*
X149860000Y-76200000D02*
X157480000Y-76200000D01*
%TO.N,Net-(J1-Pin_1)*%
X163950000Y-101558757D02*
X163950000Y-101600000D01*
X158740817Y-101558757D02*
X163950000Y-101558757D01*
%TO.N,*%
X158693131Y-107860124D02*
X158696636Y-107856619D01*
X158696636Y-107856619D02*
X158696636Y-107816147D01*
X165092881Y-107816147D02*
X165099999Y-107823265D01*
%TO.N,Net-(J1-Pin_1)*%
X137160000Y-101600000D02*
X152400000Y-101600000D01*
X132080000Y-106680000D02*
X137160000Y-101600000D01*
%TO.N,*%
X126960000Y-107820000D02*
X127000000Y-107780000D01*
X126960000Y-114340000D02*
X126960000Y-107820000D01*
X137120000Y-114340000D02*
X130317816Y-107537816D01*
X130317816Y-107537816D02*
X130317816Y-107457816D01*
X147280000Y-114340000D02*
X144820000Y-114340000D01*
X144820000Y-114340000D02*
X137937817Y-107457817D01*
X144780000Y-111760000D02*
X140477817Y-107457817D01*
X157440000Y-114340000D02*
X157440000Y-111800000D01*
X157480000Y-111760000D02*
X144780000Y-111760000D01*
X147320000Y-109220000D02*
X147320000Y-107780000D01*
X157480000Y-93980000D02*
X157480000Y-109220000D01*
X165100000Y-93980000D02*
X157480000Y-93980000D01*
X157480000Y-109220000D02*
X147320000Y-109220000D01*
X157440000Y-111800000D02*
X157480000Y-111760000D01*
%TO.N,Net-(J2-Pin_1)*%
X127000000Y-86360000D02*
X127000000Y-82430000D01*
X154940000Y-106680000D02*
X154940000Y-86360000D01*
X149860000Y-106680000D02*
X154940000Y-106680000D01*
%TO.N,*%
X134620000Y-86360000D02*
X134620000Y-90340000D01*
X137160000Y-81280000D02*
X137160000Y-83820000D01*
X137160000Y-83820000D02*
X134620000Y-86360000D01*
X137160000Y-88900000D02*
X137160000Y-90340000D01*
X142240000Y-86360000D02*
X139700000Y-86360000D01*
X147320000Y-81280000D02*
X142240000Y-86360000D01*
X139700000Y-86360000D02*
X137160000Y-88900000D01*
X139700000Y-88900000D02*
X139700000Y-90340000D01*
X157480000Y-81280000D02*
X149860000Y-88900000D01*
X149860000Y-88900000D02*
X139700000Y-88900000D01*
X127000000Y-81280000D02*
X124460000Y-81280000D01*
X120600000Y-81280000D02*
X124460000Y-81280000D01*
X139700000Y-119380000D02*
X129540000Y-119380000D01*
X129540000Y-119380000D02*
X129540000Y-116920000D01*
X129540000Y-116920000D02*
X129460000Y-116840000D01*
X139780000Y-119300000D02*
X139700000Y-119380000D01*
X149780000Y-119300000D02*
X139780000Y-119300000D01*
X139700000Y-119380000D02*
X139620000Y-119300000D01*
X139620000Y-119300000D02*
X139620000Y-116840000D01*
X149780000Y-116840000D02*
X149780000Y-119300000D01*
X149780000Y-119300000D02*
X149860000Y-119380000D01*
X159940000Y-116840000D02*
X159940000Y-119300000D01*
X160020000Y-119380000D02*
X149860000Y-119380000D01*
X159940000Y-119300000D02*
X160020000Y-119380000D01*
X159940000Y-116840000D02*
X160020000Y-116840000D01*
X160020000Y-116840000D02*
X162560000Y-114300000D01*
X167640000Y-109220000D02*
X162560000Y-114300000D01*
X165100000Y-93980000D02*
X167640000Y-93980000D01*
X167640000Y-93980000D02*
X167640000Y-109220000D01*
X139700000Y-76200000D02*
X149860000Y-76200000D01*
X149860000Y-76200000D02*
X149860000Y-81280000D01*
X129540000Y-76200000D02*
X139700000Y-76200000D01*
X139700000Y-76200000D02*
X139700000Y-81280000D01*
X129540000Y-76200000D02*
X129540000Y-81280000D01*
%TD*%
M02*
